<?xml version="1.0" encoding="UTF-8" standalone="no"?>
<svg
   xmlns:dc="http://purl.org/dc/elements/1.1/"
   xmlns:cc="http://creativecommons.org/ns#"
   xmlns:rdf="http://www.w3.org/1999/02/22-rdf-syntax-ns#"
   xmlns:svg="http://www.w3.org/2000/svg"
   xmlns="http://www.w3.org/2000/svg"
   xmlns:sodipodi="http://sodipodi.sourceforge.net/DTD/sodipodi-0.dtd"
   xmlns:inkscape="http://www.inkscape.org/namespaces/inkscape"
   height="512px"
   style="enable-background:new 0 0 512 512;"
   version="1.1"
   viewBox="0 0 512 512"
   width="512px"
   xml:space="preserve"
   id="svg2915"
   sodipodi:docname="iconfinder_189_Kaggle_logo_logos_4373210.svg"
   inkscape:version="1.0.1 (1.0.1+r73)"><metadata
     id="metadata2921"><rdf:RDF><cc:Work
         rdf:about=""><dc:format>image/svg+xml</dc:format><dc:type
           rdf:resource="http://purl.org/dc/dcmitype/StillImage" /></cc:Work></rdf:RDF></metadata><defs
     id="defs2919" /><sodipodi:namedview
     pagecolor="#ffffff"
     bordercolor="#666666"
     borderopacity="1"
     objecttolerance="10"
     gridtolerance="10"
     guidetolerance="10"
     inkscape:pageopacity="0"
     inkscape:pageshadow="2"
     inkscape:window-width="1848"
     inkscape:window-height="1016"
     id="namedview2917"
     showgrid="false"
     inkscape:zoom="1.2263883"
     inkscape:cx="188.37668"
     inkscape:cy="318.50888"
     inkscape:window-x="72"
     inkscape:window-y="27"
     inkscape:window-maximized="1"
     inkscape:current-layer="svg2915" /><g
     id="_x31_89-kaggle"
     style="opacity:0.6"><g
       id="g2911"><path
         d="M385.708,476.478L254.742,313.713l125.578-121.534c2.334-2.426,1.526-9.433-4.761-9.433h-62.16    c-3.145,0-6.288,1.618-9.433,4.761L185.128,307.604V32.738c0-4.491-2.247-6.737-6.738-6.737h-46.618    c-4.492,0-6.737,2.246-6.737,6.737v446.433c0,4.491,2.246,6.738,6.737,6.738h46.618c4.491,0,6.738-2.247,6.738-6.738v-97.91    l27.666-26.317l99.257,126.294c2.695,3.145,5.839,4.762,9.432,4.762h60.095c3.143,0,4.939-0.899,5.389-2.696L385.708,476.478z"
         style="fill:#20BEFF"
         id="path2909" /></g></g><g
     id="Layer_1"
     style="opacity:0.6" /></svg>
