<?xml version="1.0" encoding="UTF-8" standalone="no"?>
<svg
   width="223.57001"
   height="223.56671"
   viewBox="0 0 223.57001 223.56671"
   version="1.1"
   xml:space="preserve"
   style="clip-rule:evenodd;fill-rule:evenodd;stroke-linejoin:round;stroke-miterlimit:2"
   id="svg493"
   sodipodi:docname="linkedin.svg"
   inkscape:version="1.2.2 (1:1.2.2+202305151914+b0a8486541)"
   xmlns:inkscape="http://www.inkscape.org/namespaces/inkscape"
   xmlns:sodipodi="http://sodipodi.sourceforge.net/DTD/sodipodi-0.dtd"
   xmlns="http://www.w3.org/2000/svg"
   xmlns:svg="http://www.w3.org/2000/svg"
   xmlns:rdf="http://www.w3.org/1999/02/22-rdf-syntax-ns#"
   xmlns:cc="http://creativecommons.org/ns#"
   xmlns:dc="http://purl.org/dc/elements/1.1/"><metadata
   id="metadata499"><rdf:RDF><cc:Work
       rdf:about=""><dc:format>image/svg+xml</dc:format><dc:type
         rdf:resource="http://purl.org/dc/dcmitype/StillImage" /><dc:title /></cc:Work></rdf:RDF></metadata><defs
   id="defs497" /><sodipodi:namedview
   pagecolor="#ffffff"
   bordercolor="#666666"
   borderopacity="1"
   objecttolerance="10"
   gridtolerance="10"
   guidetolerance="10"
   inkscape:pageopacity="0"
   inkscape:pageshadow="2"
   inkscape:window-width="1846"
   inkscape:window-height="1016"
   id="namedview495"
   showgrid="false"
   fit-margin-top="0"
   fit-margin-left="0"
   fit-margin-right="0"
   fit-margin-bottom="0"
   inkscape:zoom="3.0389611"
   inkscape:cx="75.190169"
   inkscape:cy="103.81837"
   inkscape:window-x="74"
   inkscape:window-y="27"
   inkscape:window-maximized="1"
   inkscape:current-layer="svg493"
   inkscape:showpageshadow="2"
   inkscape:pagecheckerboard="0"
   inkscape:deskcolor="#d1d1d1" />
    <path
   inkscape:connector-curvature="0"
   id="path489"
   style="opacity:0.6;fill:#0a66c2;fill-rule:nonzero;stroke-width:1.2"
   d="m 206.4928,191.68761 h -39.7524 v -62.2536 c 0,-14.8452 -0.2652,-33.955199 -20.6748,-33.955199 -20.7048,0 -23.8728,16.173599 -23.8728,32.873999 v 63.33 H 82.4416 V 63.664399 h 38.1612 v 17.4948 h 0.5352 c 7.77,-13.2852 22.2708,-21.2496 37.6524,-20.6784 40.29,0 47.7192,26.500807 47.7192,60.978011 z M 37.588,46.164799 h -0.0048 c -12.6552,0 -23.0688,-10.4124 -23.0688,-23.0676 0,-12.6552 10.4136,-23.0688 23.0688,-23.0688 12.654,0 23.0664,10.4112 23.0688,23.064 v 0.0048 c 0,12.6528 -10.4112,23.0664 -23.064,23.0676 M 57.4636,191.68761 H 17.6704 V 63.664399 h 39.7932 z"
   sodipodi:nodetypes="ccsssccccccccccssscscccccc" />
</svg>
