<?xml version="1.0" encoding="UTF-8" standalone="no"?>
<svg
   xmlns:dc="http://purl.org/dc/elements/1.1/"
   xmlns:cc="http://creativecommons.org/ns#"
   xmlns:rdf="http://www.w3.org/1999/02/22-rdf-syntax-ns#"
   xmlns:svg="http://www.w3.org/2000/svg"
   xmlns="http://www.w3.org/2000/svg"
   xmlns:sodipodi="http://sodipodi.sourceforge.net/DTD/sodipodi-0.dtd"
   xmlns:inkscape="http://www.inkscape.org/namespaces/inkscape"
   sodipodi:docname="site.svg"
   inkscape:version="1.0.1 (1.0.1+r73)"
   version="1.1"
   id="svg2"
   viewBox="0 0 63.999998 63.999997"
   height="18.062222mm"
   width="18.062222mm">
  <defs
     id="defs4" />
  <sodipodi:namedview
     id="base"
     pagecolor="#ffffff"
     bordercolor="#666666"
     borderopacity="1.0"
     inkscape:pageopacity="0.0"
     inkscape:pageshadow="2"
     inkscape:zoom="4.5575242"
     inkscape:cx="39.315029"
     inkscape:cy="30.924703"
     inkscape:document-units="px"
     inkscape:current-layer="layer3"
     showgrid="false"
     inkscape:snap-center="true"
     inkscape:window-width="1848"
     inkscape:window-height="1016"
     inkscape:window-x="72"
     inkscape:window-y="27"
     inkscape:window-maximized="1"
     fit-margin-top="0"
     fit-margin-left="0"
     fit-margin-right="0"
     fit-margin-bottom="0"
     inkscape:document-rotation="0" />
  <metadata
     id="metadata7">
    <rdf:RDF>
      <cc:Work
         rdf:about="">
        <dc:format>image/svg+xml</dc:format>
        <dc:type
           rdf:resource="http://purl.org/dc/dcmitype/StillImage" />
        <dc:title />
      </cc:Work>
    </rdf:RDF>
  </metadata>
  <g
     inkscape:label="dark"
     id="g6023"
     inkscape:groupmode="layer"
     style="display:none">
    <g
       transform="translate(-451.18103,-393.54437)"
       inkscape:label="background"
       id="g6025"
       inkscape:groupmode="layer">
      <rect
         ry="16"
         y="393.54437"
         x="451.18103"
         height="64"
         width="64"
         id="rect6027"
         style="opacity:1;fill:#002b36;fill-opacity:1;fill-rule:nonzero;stroke:none;stroke-width:32;stroke-linecap:butt;stroke-linejoin:miter;stroke-miterlimit:4;stroke-dasharray:none;stroke-dashoffset:0;stroke-opacity:1" />
    </g>
    <g
       transform="translate(-451.18103,-393.54437)"
       id="g6029"
       inkscape:groupmode="layer"
       inkscape:label="text">
      <g
         transform="translate(0.04549512,4.234835)"
         id="g6039"
         style="font-style:normal;font-weight:normal;font-size:20px;line-height:125%;font-family:sans-serif;letter-spacing:0px;word-spacing:0px;fill:#000000;fill-opacity:1;stroke:none;stroke-width:1px;stroke-linecap:butt;stroke-linejoin:miter;stroke-opacity:1" />
      <g
         aria-label="m@"
         id="text6041"
         style="font-style:normal;font-weight:normal;font-size:20px;line-height:125%;font-family:sans-serif;letter-spacing:0px;word-spacing:0px;fill:#93a1a1;fill-opacity:1;stroke:none;stroke-width:1px;stroke-linecap:butt;stroke-linejoin:miter;stroke-opacity:1">
        <path
           id="path909"
           style="font-style:normal;font-variant:normal;font-weight:normal;font-stretch:normal;font-size:60px;line-height:125%;font-family:'Ubuntu Mono';-inkscape-font-specification:'Ubuntu Mono, Normal';text-align:start;writing-mode:lr-tb;text-anchor:start;fill:#93a1a1;fill-opacity:1"
           d="m 510.99093,436.70438 q -1.8,0.71999 -3.66,1.01999 -1.86,0.24001 -3.42,0.24001 -2.1,0 -3.9,-0.66001 -1.8,-0.71999 -3.18,-2.15999 -1.32,-1.44 -2.1,-3.66001 -0.72,-2.27999 -0.72,-5.39999 0,-5.58001 2.88,-8.46001 2.88,-2.94 7.5,-2.94 0.48,0 0.9,0.06 0.48,0 0.96,0.06 0,-3.77999 -1.56,-6 -1.56,-2.21999 -4.98,-2.21999 -2.1,0 -3.84,1.01999 -1.74,1.02 -3,3.30001 -1.26,2.21999 -1.98,5.75999 -0.72,3.54001 -0.72,8.58 0,3.78001 0.72,7.32 0.72,3.48 2.22,6.12 1.56,2.64 3.9,4.2 2.4,1.62 5.7,1.62 2.4,0 4.98,-0.78 l 0.48,4.02 q -3.18,0.84001 -5.88,0.84001 -4.38,0 -7.62,-1.98001 -3.18,-1.92 -5.28,-5.1 -2.04,-3.18 -3.06,-7.26 -1.02,-4.08 -1.02,-8.33999 0,-6.18001 1.08,-10.62001 1.14,-4.43999 3.06,-7.25999 1.98,-2.82 4.56,-4.14001 2.58,-1.38 5.58,-1.38 5.28,0 8.34,3.6 3.06,3.54001 3.06,9.9 z m -12.18,-10.62 q 0,1.19999 0.12,2.57999 0.18,1.38 0.72,2.58 0.54,1.14 1.5,1.98 1.02,0.78 2.76,0.78 0.48,0 1.08,-0.06 0.6,-0.06 1.26,-0.23999 v -14.70001 q -0.54,-0.18 -1.08,-0.24 -0.48,-0.06 -0.96,-0.06 -2.58,0 -4.02,2.03999 -1.38,1.98 -1.38,5.34001 z m -43.43989,-12.66001 q 3.6,-1.38 6.78,-1.38 1.74,0 3.24,0.54001 1.56,0.47999 2.64,1.56 2.58,-2.10001 5.52,-2.10001 1.44,0 2.7,0.54001 1.32,0.53999 2.28,1.62 1.02,1.07999 1.62,2.7 0.6,1.62 0.6,3.77999 v 19.8 h -4.5 v -19.92 q 0,-2.15999 -0.96,-3.3 -0.96,-1.14 -2.4,-1.14 -0.72,0 -1.5,0.36 -0.78,0.36001 -1.44,1.14 0.36,1.38 0.36,3.06 v 9.06 h -4.5 v -9.12 q 0,-2.09999 -0.66,-3.3 -0.66,-1.2 -2.58,-1.2 -1.2,0 -2.7,0.54 v 23.82 h -4.5 z" />
      </g>
    </g>
  </g>
  <g
     inkscape:groupmode="layer"
     id="layer3"
     inkscape:label="light"
     style="display:inline;opacity:0.6">
    <g
       inkscape:groupmode="layer"
       id="layer2"
       inkscape:label="background"
       transform="translate(-451.18103,-393.54437)"
       style="display:none">
      <rect
         style="opacity:1;fill:#fdf6e3;fill-opacity:1;fill-rule:nonzero;stroke:none;stroke-width:32;stroke-linecap:butt;stroke-linejoin:miter;stroke-miterlimit:4;stroke-dasharray:none;stroke-dashoffset:0;stroke-opacity:1"
         id="rect4166"
         width="64"
         height="64"
         x="451.18103"
         y="393.54437"
         ry="16" />
    </g>
    <g
       inkscape:label="text"
       inkscape:groupmode="layer"
       id="layer1"
       transform="translate(-451.18103,-393.54437)">
      <g
         style="font-style:normal;font-weight:normal;font-size:20px;line-height:125%;font-family:sans-serif;letter-spacing:0px;word-spacing:0px;fill:#000000;fill-opacity:1;stroke:none;stroke-width:1px;stroke-linecap:butt;stroke-linejoin:miter;stroke-opacity:1"
         id="text4144"
         transform="translate(0.04549512,4.234835)" />
      <g
         aria-label="m@"
         id="text4162"
         style="font-style:normal;font-weight:normal;font-size:20px;line-height:125%;font-family:sans-serif;letter-spacing:0px;word-spacing:0px;fill:#000000;fill-opacity:1;stroke:none;stroke-width:1px;stroke-linecap:butt;stroke-linejoin:miter;stroke-opacity:1">
        <path
           id="path903"
           style="font-style:normal;font-variant:normal;font-weight:normal;font-stretch:normal;font-size:60px;line-height:125%;font-family:'Ubuntu Mono';-inkscape-font-specification:'Ubuntu Mono, Normal';text-align:start;writing-mode:lr-tb;text-anchor:start;fill:#586e75;fill-opacity:1"
           d="m 510.99093,436.70438 q -1.8,0.71999 -3.66,1.01999 -1.86,0.24001 -3.42,0.24001 -2.1,0 -3.9,-0.66001 -1.8,-0.71999 -3.18,-2.15999 -1.32,-1.44 -2.1,-3.66001 -0.72,-2.27999 -0.72,-5.39999 0,-5.58001 2.88,-8.46001 2.88,-2.94 7.5,-2.94 0.48,0 0.9,0.06 0.48,0 0.96,0.06 0,-3.77999 -1.56,-6 -1.56,-2.21999 -4.98,-2.21999 -2.1,0 -3.84,1.01999 -1.74,1.02 -3,3.30001 -1.26,2.21999 -1.98,5.75999 -0.72,3.54001 -0.72,8.58 0,3.78001 0.72,7.32 0.72,3.48 2.22,6.12 1.56,2.64 3.9,4.2 2.4,1.62 5.7,1.62 2.4,0 4.98,-0.78 l 0.48,4.02 q -3.18,0.84001 -5.88,0.84001 -4.38,0 -7.62,-1.98001 -3.18,-1.92 -5.28,-5.1 -2.04,-3.18 -3.06,-7.26 -1.02,-4.08 -1.02,-8.33999 0,-6.18001 1.08,-10.62001 1.14,-4.43999 3.06,-7.25999 1.98,-2.82 4.56,-4.14001 2.58,-1.38 5.58,-1.38 5.28,0 8.34,3.6 3.06,3.54001 3.06,9.9 z m -12.18,-10.62 q 0,1.19999 0.12,2.57999 0.18,1.38 0.72,2.58 0.54,1.14 1.5,1.98 1.02,0.78 2.76,0.78 0.48,0 1.08,-0.06 0.6,-0.06 1.26,-0.23999 v -14.70001 q -0.54,-0.18 -1.08,-0.24 -0.48,-0.06 -0.96,-0.06 -2.58,0 -4.02,2.03999 -1.38,1.98 -1.38,5.34001 z m -43.43989,-12.66001 q 3.6,-1.38 6.78,-1.38 1.74,0 3.24,0.54001 1.56,0.47999 2.64,1.56 2.58,-2.10001 5.52,-2.10001 1.44,0 2.7,0.54001 1.32,0.53999 2.28,1.62 1.02,1.07999 1.62,2.7 0.6,1.62 0.6,3.77999 v 19.8 h -4.5 v -19.92 q 0,-2.15999 -0.96,-3.3 -0.96,-1.14 -2.4,-1.14 -0.72,0 -1.5,0.36 -0.78,0.36001 -1.44,1.14 0.36,1.38 0.36,3.06 v 9.06 h -4.5 v -9.12 q 0,-2.09999 -0.66,-3.3 -0.66,-1.2 -2.58,-1.2 -1.2,0 -2.7,0.54 v 23.82 h -4.5 z" />
      </g>
    </g>
  </g>
</svg>
